<?xml version="1.0" encoding="UTF-8"?>
<svg xmlns="http://www.w3.org/2000/svg" version="1.1" xmlns:xlink="http://www.w3.org/1999/xlink" viewBox="0 0 32 32">
  <defs>
    <style>
      .cls-1 {
        fill: url(#_Безымянный_градиент_42);
        stroke: url(#_Безымянный_градиент_48);
      }

      .cls-1, .cls-2 {
        stroke-miterlimit: 8;
      }

      .cls-2 {
        fill: none;
        stroke: url(#_Безымянный_градиент_6);
      }

      .cls-3 {
        stroke: #000;
        stroke-miterlimit: 10;
        stroke-width: .15px;
      }
    </style>
    <linearGradient id="_Безымянный_градиент_6" data-name="Безымянный градиент 6" x1="1.19" y1="15.19" x2="30.81" y2="15.19" gradientUnits="userSpaceOnUse">
      <stop offset="0" stop-color="#cce0f4"/>
      <stop offset=".06" stop-color="#c2dcf2"/>
      <stop offset=".16" stop-color="#a9d2ee"/>
      <stop offset=".28" stop-color="#7fc2e7"/>
      <stop offset=".42" stop-color="#46abdd"/>
      <stop offset=".52" stop-color="#1e9cd7"/>
      <stop offset=".78" stop-color="#0075be"/>
      <stop offset=".99" stop-color="#005b97"/>
    </linearGradient>
    <linearGradient id="_Безымянный_градиент_42" data-name="Безымянный градиент 42" x1="9.65" y1="18" x2="22.65" y2="18" gradientUnits="userSpaceOnUse">
      <stop offset="0" stop-color="#cce0f4"/>
      <stop offset=".06" stop-color="#c2dcf2"/>
      <stop offset=".16" stop-color="#a9d2ee"/>
      <stop offset=".28" stop-color="#7fc2e7"/>
      <stop offset=".42" stop-color="#46abdd"/>
      <stop offset=".52" stop-color="#1e9cd7"/>
      <stop offset=".74" stop-color="#0075be"/>
      <stop offset="1" stop-color="#005b97"/>
    </linearGradient>
    <linearGradient id="_Безымянный_градиент_48" data-name="Безымянный градиент 48" x1="8.84" y1="17.69" x2="23.45" y2="17.69" gradientUnits="userSpaceOnUse">
      <stop offset="0" stop-color="#cce0f4"/>
      <stop offset=".06" stop-color="#c2dcf2"/>
      <stop offset=".16" stop-color="#a9d2ee"/>
      <stop offset=".28" stop-color="#7fc2e7"/>
      <stop offset=".42" stop-color="#46abdd"/>
      <stop offset=".52" stop-color="#1e9cd7"/>
      <stop offset=".74" stop-color="#057bc2"/>
      <stop offset="1" stop-color="#005b97"/>
    </linearGradient>
  </defs>
  <!-- Generator: Adobe Illustrator 28.7.1, SVG Export Plug-In . SVG Version: 1.2.0 Build 142)  -->
  <g>
    <g id="_Слой_1" data-name="Слой_1">
      <polygon class="cls-2" points="30 29.5 2 29.5 16 1.5 30 29.5"/>
      <polygon class="cls-1" points="22.65 24.5 9.65 24.5 16.15 11.5 22.65 24.5"/>
      <g>
        <path class="cls-3" d="M10.22,26.64c0-.55,0-1.02,0-1.28h0c-.06.36-.31,1.63-.5,2.61h-.08c-.15-.8-.41-2.23-.48-2.6h0c0,.31.01.92.01,1.38v1.22h-.06v-2.66h.1c.21,1.09.46,2.39.47,2.57h0c0-.14.28-1.49.49-2.57h.11v2.66h-.07v-1.33Z"/>
        <path class="cls-3" d="M11.61,25.31v2.66h-.07v-2.66h.07Z"/>
        <path class="cls-3" d="M12.94,26.61v1.36h-.07v-2.66h.32c.35,0,.45.18.45.57v.12c0,.42-.11.54-.3.59.2.06.28.23.28.51,0,.23,0,.73.03.88h-.07c-.02-.11-.02-.68-.03-.89,0-.37-.14-.47-.41-.47h-.2ZM12.94,26.55h.22c.32,0,.42-.15.42-.56v-.12c0-.29-.05-.51-.39-.51h-.24v1.18Z"/>
        <path class="cls-3" d="M14.93,26.89l-.18,1.08h-.07l.44-2.66h.09l.45,2.66h-.07l-.18-1.08h-.49ZM15.4,26.83c-.16-.97-.22-1.28-.24-1.46h0c-.02.2-.11.75-.22,1.46h.46Z"/>
        <path class="cls-3" d="M17.57,27.97h-.06c0-.08,0-.12,0-.31-.05.26-.19.34-.38.34-.24,0-.41-.13-.41-.63v-1.5c0-.41.14-.6.43-.6.38,0,.41.35.41.61v.06h-.07v-.08c0-.29-.06-.53-.34-.53-.26,0-.36.18-.36.55v1.48c0,.35.08.58.34.58.31,0,.38-.32.38-.79v-.49h-.42v-.06h.48v1.38Z"/>
        <path class="cls-3" d="M19.4,26.56h-.56v1.35h.64l-.02.06h-.69v-2.66h.68v.06h-.61v1.13h.56v.06Z"/>
        <path class="cls-3" d="M21.64,26.64c0-.55,0-1.02,0-1.28h0c-.06.36-.31,1.63-.5,2.61h-.08c-.15-.8-.41-2.23-.48-2.6h0c0,.31.01.92.01,1.38v1.22h-.06v-2.66h.1c.21,1.09.46,2.39.47,2.57h0c0-.14.28-1.49.49-2.57h.11v2.66h-.07v-1.33Z"/>
        <path class="cls-3" d="M22.96,25.31h.07v2.6h.64l-.02.06h-.69v-2.66Z"/>
      </g>
    </g>
  </g>
</svg>